<svg width="44" height="44" viewBox="0 0 44 44" fill="none" xmlns="http://www.w3.org/2000/svg">
<circle opacity="0.8" cx="22" cy="22" r="22" fill="url(#paint0_linear_3790_9156)"/>
<path d="M31.8 14H12.6C12.1757 14 11.7687 14.1686 11.4686 14.4686C11.1686 14.7687 11 15.1757 11 15.6V28.4C11 28.8243 11.1686 29.2313 11.4686 29.5314C11.7687 29.8314 12.1757 30 12.6 30H31.8C32.2243 30 32.6313 29.8314 32.9314 29.5314C33.2314 29.2313 33.4 28.8243 33.4 28.4V15.6C33.4 15.1757 33.2314 14.7687 32.9314 14.4686C32.6313 14.1686 32.2243 14 31.8 14ZM30.04 15.6L22.2 21.024L14.36 15.6H30.04ZM12.6 28.4V16.328L21.744 22.656C21.8779 22.7489 22.037 22.7987 22.2 22.7987C22.363 22.7987 22.5221 22.7489 22.656 22.656L31.8 16.328V28.4H12.6Z" fill="white"/>
<defs>
<linearGradient id="paint0_linear_3790_9156" x1="0.29932" y1="41.25" x2="56.5975" y2="28.9946" gradientUnits="userSpaceOnUse">
<stop stop-color="#3B8CFA"/>
<stop offset="1" stop-color="#B2D2FF"/>
</linearGradient>
</defs>
</svg>
